<svg width="34" height="34" viewBox="0 0 34 34" fill="none" xmlns="http://www.w3.org/2000/svg">
<path d="M23.1844 9.08838C20.5069 9.08838 19.3754 10.366 17.5107 10.366C15.5988 10.366 14.1405 9.09768 11.8203 9.09768C9.54922 9.09768 7.12739 10.4842 5.58942 12.8463C3.42989 16.1772 3.79645 22.4506 7.29407 27.795C8.54516 29.7082 10.2159 31.8538 12.4073 31.877H12.4472C14.3517 31.877 14.9175 30.6299 17.5386 30.6153H17.5784C20.1603 30.6153 20.6782 31.8697 22.5748 31.8697H22.6147C24.8061 31.8465 26.5665 29.4691 27.8176 27.5633C28.718 26.1926 29.0527 25.5047 29.7434 23.9541C24.6839 22.0336 23.8711 14.8611 28.8748 12.1112C27.3474 10.1987 25.2012 9.09103 23.1778 9.09103L23.1844 9.08838Z" fill="white"/>
<path d="M22.5947 2.125C21.001 2.23324 19.1416 3.24793 18.0525 4.57273C17.0644 5.77336 16.2516 7.55437 16.5703 9.2816H16.6978C18.3952 9.2816 20.1324 8.25961 21.1471 6.95008C22.1246 5.70363 22.8657 3.93723 22.5947 2.125Z" fill="white"/>
</svg>
